<svg width="143" height="55" viewBox="0 0 143 55" fill="none" xmlns="http://www.w3.org/2000/svg">
<g clip-path="url(#clip0_613_736)">
<path d="M72.3791 36.7571H72.3087C71.9621 37.4134 71.3949 37.9242 70.7084 38.1982C69.9991 38.5176 69.0159 38.6774 67.7589 38.6774C65.6963 38.6531 64.1092 38.0869 62.9977 36.9785C61.8231 35.8955 61.2364 34.5115 61.2376 32.8265C61.2376 31.2119 61.7469 29.8757 62.7656 28.8181C63.7843 27.7351 65.2774 27.181 67.2449 27.1556H72.3791V25.1298C72.4032 23.4344 71.1427 22.6115 68.5977 22.6611C67.6729 22.6611 66.9441 22.7597 66.4113 22.9569C65.8529 23.1934 65.3898 23.612 65.0964 24.1454L62.1743 21.8341C63.5815 19.9231 65.6602 18.9923 68.4103 19.0419C70.7308 19.0165 72.5837 19.4721 73.9691 20.4086C75.3545 21.3682 76.0592 23.0186 76.0833 25.3599V38.4559H72.3791V36.7571ZM72.3791 30.3267H67.9273C65.7673 30.3751 64.6987 31.1455 64.7217 32.638C64.7228 32.9616 64.7991 33.2804 64.9444 33.5691C65.0898 33.8577 65.3001 34.1082 65.5587 34.3005C66.0927 34.8068 66.9774 35.0599 68.2127 35.0599C69.7665 35.0842 70.8643 34.8927 71.506 34.4856C72.0881 34.0785 72.3791 33.1558 72.3791 31.7176V30.3267Z" fill="white"/>
<path d="M80.2808 19.2807H83.9849V21.3135H84.0622C85.2826 19.798 86.8829 19.0408 88.863 19.042C90.2898 19.0453 91.6672 19.5683 92.7407 20.5142L90.0353 23.8445C89.2515 23.2021 88.439 22.8814 87.5979 22.8826C86.6904 22.8653 85.8132 23.2113 85.1589 23.8445C84.3991 24.4719 84.0078 25.4891 83.9849 26.8962V38.456H80.2808V19.2807Z" fill="white"/>
<path d="M95.8123 30.3267C95.8123 31.8688 96.2391 33.0394 97.0928 33.8386C97.8892 34.6517 98.9331 35.0589 100.225 35.06C101.73 35.06 103.076 34.4372 104.262 33.1916L106.949 35.5756C105.065 37.6688 102.849 38.7028 100.302 38.6774C99.3371 38.6779 98.3781 38.5279 97.4589 38.2328C96.9868 38.068 96.5343 37.851 96.1096 37.5858C95.6442 37.3509 95.2085 37.0605 94.8119 36.7208C94.0292 36.0069 93.3956 35.0093 92.9108 33.7279C92.3769 32.4962 92.1099 30.8948 92.1099 28.9237C92.1099 27.0276 92.339 25.4516 92.7974 24.1956C93.2558 22.9155 93.8476 21.9057 94.573 21.1664C95.2641 20.4432 96.1092 19.8872 97.0447 19.5402C97.8965 19.2168 98.7986 19.0481 99.7089 19.042C101.817 19.0662 103.6 19.7865 105.058 21.2028C106.54 22.6433 107.292 24.6264 107.317 27.1522V30.3267H95.8123ZM103.618 27.1609C103.569 25.6615 103.183 24.5295 102.459 23.7649C101.745 23.0348 100.828 22.6698 99.7089 22.6698C98.5894 22.6698 97.6726 23.0348 96.9588 23.7649C96.2609 24.5295 95.8787 25.6615 95.8123 27.1609H103.618Z" fill="white"/>
<path d="M110.618 19.2807H114.323V21.3135H114.393C115.613 19.798 117.212 19.0408 119.189 19.042C120.716 19.042 122.114 19.6019 123.381 20.7218C124.648 21.8417 125.305 23.5042 125.352 25.7094V38.456H121.648V27.0259C121.648 25.6823 121.305 24.6587 120.617 23.9552C119.929 23.2516 119.058 22.8941 118.003 22.8826C117.514 22.8665 117.027 22.9536 116.574 23.1384C116.121 23.3231 115.711 23.6013 115.371 23.9552C114.671 24.6576 114.321 25.6811 114.323 27.0259V38.456H110.618V19.2807Z" fill="white"/>
<path d="M139.296 36.7572H139.227C138.881 37.4134 138.313 37.9242 137.627 38.1982C136.916 38.5177 135.933 38.6775 134.677 38.6775C132.615 38.6532 131.028 38.0869 129.916 36.9786C128.742 35.8956 128.155 34.5116 128.156 32.8266C128.156 31.2119 128.665 29.8758 129.684 28.8182C130.703 27.7352 132.192 27.1811 134.153 27.1557H139.296V25.1299C139.32 23.4345 138.059 22.6116 135.514 22.6612C134.59 22.6612 133.861 22.7598 133.328 22.957C132.77 23.1935 132.307 23.6121 132.013 24.1455L129.091 21.8342C130.499 19.922 132.577 18.9913 135.325 19.042C137.646 19.0166 139.499 19.4722 140.884 20.4087C142.27 21.3683 142.974 23.0187 142.998 25.3599V38.456H139.296V36.7572ZM139.296 30.3268H134.844C132.683 30.3752 131.614 31.1456 131.638 32.638C131.64 32.9616 131.716 33.2805 131.861 33.5692C132.006 33.8578 132.217 34.1083 132.475 34.3006C133.009 34.8069 133.894 35.06 135.129 35.06C136.683 35.0843 137.781 34.8928 138.423 34.4857C139.005 34.0785 139.296 33.1559 139.296 31.7177V30.3268Z" fill="white"/>
<path d="M27.359 53.4153C41.1522 53.4153 52.3339 42.1611 52.3339 28.2784C52.3339 14.3957 41.1522 3.1416 27.359 3.1416C13.5657 3.1416 2.38403 14.3957 2.38403 28.2784C2.38403 42.1611 13.5657 53.4153 27.359 53.4153Z" fill="white"/>
<path d="M27.3298 0C21.9245 0 16.6405 1.61325 12.1462 4.63575C7.65182 7.65825 4.14889 11.9542 2.08037 16.9805C0.0118417 22.0067 -0.529379 27.5374 0.525146 32.8732C1.57967 38.2091 4.18258 43.1103 8.00472 46.9572C11.8269 50.8042 16.6966 53.4239 21.998 54.4853C27.2995 55.5467 32.7946 55.0019 37.7884 52.92C42.7823 50.8381 47.0506 47.3124 50.0536 42.7889C53.0567 38.2655 54.6595 32.9473 54.6595 27.5069C54.6595 20.2116 51.7802 13.2151 46.6548 8.05659C41.5295 2.89804 34.5781 0 27.3298 0V0ZM37.1771 40.0961H17.4756C17.3586 40.0965 17.2432 40.0692 17.1387 40.0164C17.0342 39.9636 16.9435 39.8867 16.874 39.792C16.8045 39.6973 16.7582 39.5874 16.7388 39.4714C16.7194 39.3553 16.7274 39.2362 16.7623 39.1238C17.632 36.3316 20.6228 28.2785 27.2885 28.2785H27.359C33.901 28.2785 37.0155 36.3316 37.8853 39.1238C37.9198 39.2363 37.9275 39.3554 37.9078 39.4715C37.8882 39.5876 37.8416 39.6973 37.772 39.792C37.7024 39.8866 37.6117 39.9634 37.5072 40.0163C37.4026 40.0691 37.2872 40.0964 37.1702 40.0961H37.1771ZM49.5941 19.324C49.5941 19.324 40.2882 26.6956 27.3298 26.699C14.3713 26.7025 5.05344 19.324 5.05344 19.324C4.08057 18.5525 4.29715 17.9227 5.53472 17.9227H49.1111C50.3487 17.9227 50.567 18.5525 49.5941 19.324Z" fill="#E5253B"/>
</g>
<defs>
<clipPath id="clip0_613_736">
<rect width="143" height="55" fill="white"/>
</clipPath>
</defs>
</svg>
