<svg xmlns="http://www.w3.org/2000/svg" xmlns:xlink="http://www.w3.org/1999/xlink" version="1.1"
  x="0px" y="0px" viewBox="0 0 100 125" enable-background="new 0 0 100 100" xml:space="preserve"><polygon points="57.3,58.3 57.3,57.2 57.3,56.1 57.3,54.9 57.3,53.8 57.3,52.7 56.2,52.7 55.1,52.7 53.9,52.7 52.8,52.7 52.8,53.8   51.7,53.8 51.7,54.9 51.7,56.1 52.8,56.1 52.8,57.2 52.8,58.3 53.9,58.3 53.9,59.4 55.1,59.4 56.2,59.4 57.3,59.4 58.4,59.4   59.5,59.4 59.5,58.3 58.4,58.3 "/><polygon points="51.8,50.8 52.9,50.8 54.1,50.8 55.2,50.8 55.2,49.7 54.1,49.7 54.1,48.6 53,48.6 53,47.4 51.9,47.4 50.7,47.4   50.7,48.6 50.7,49.7 50.7,49.7 49.6,49.7 49.6,50.8 49.6,51.9 50.7,51.9 51.8,51.9 "/><polygon points="42.1,37.5 42.1,38.6 43.2,38.6 43.2,39.7 44.4,39.7 44.4,40.9 44.4,42 45.5,42 45.5,43.1 46.6,43.1 46.6,44.2   46.6,45.3 47.7,45.3 47.7,46.4 48.8,46.4 48.8,47.6 50,47.6 50,46.4 51.1,46.4 52.2,46.4 52.2,45.3 52.2,45.3 52.2,44.2 51.1,44.2   51.1,43.1 51.1,42 51.1,40.9 50,40.9 50,39.7 50,38.6 48.8,38.6 48.8,37.5 47.7,37.5 47.7,36.4 46.6,36.4 46.6,35.2 45.5,35.2   45.5,34.1 45.5,33 44.4,33 43.2,33 42.1,33 41,33 41,34.1 39.9,34.1 39.9,35.2 39.9,36.4 41,36.4 41,37.5 "/><polygon points="65.3,43.9 65.3,45 65.3,46.2 66.4,46.2 66.4,47.3 67.5,47.3 68.6,47.3 68.6,46.2 69.8,46.2 69.8,45 69.8,43.9   69.8,42.8 69.2,42.8 69.2,41.7 68.1,41.7 67,41.7 67,42.8 66.4,42.8 65.3,42.8 "/><polygon points="69.6,37.6 69.6,36.5 69.6,35.4 69.6,34.2 69.6,33.1 69.6,32 68.5,32 67.4,32 67.4,33.1 67.4,34.2 67.4,35.4   67.4,36.5 67.4,37.6 68.5,37.6 "/><polygon points="57.2,30.1 56,30.1 54.9,30.1 53.8,30.1 53.8,31.2 54.9,31.2 54.9,32.3 56,32.3 56,33.5 56,34.6 56,35.7 57.2,35.7   58.3,35.7 58.9,35.7 58.9,36.8 60,36.8 61.1,36.8 62.3,36.8 63.4,36.8 64.5,36.8 65.6,36.8 65.6,35.7 65.6,34.6 65.6,33.5   65.6,32.3 64.5,32.3 63.4,32.3 62.3,32.3 62.3,31.2 61.1,31.2 61.1,30.1 60,30.1 59.4,30.1 59.4,29 58.3,29 57.2,29 "/><polygon points="29.9,37.4 31,37.4 31,38.5 32.2,38.5 32.2,39.6 33.3,39.6 34.4,39.6 35.5,39.6 36.6,39.6 37.8,39.6 37.8,39.6   38.9,39.6 38.9,40.6 40,40.6 41.1,40.6 41.1,39.5 40,39.5 40,38.5 38.9,38.5 38.9,37.4 37.8,37.4 37.8,36.3 37.8,35.1 37.8,34   37.8,32.9 37.8,31.8 38.9,31.8 38.9,30.7 40,30.7 41.1,30.7 42.2,30.7 43.4,30.7 44.5,30.7 45.6,30.7 46.7,30.7 47.9,30.7   47.9,31.8 49,31.8 49,30.7 49,29.5 50.1,29.5 51.2,29.5 51.2,28.4 52.3,28.4 53.5,28.4 54.6,28.4 55.7,28.4 55.7,27.3 56.8,27.3   57.9,27.3 57.9,26.2 57.9,25 56.8,25 56.8,23.9 56.8,22.8 55.7,22.8 55.7,21.7 55.7,20.6 55.7,19.4 54.6,19.4 54.6,18.3 53.5,18.3   53.5,17.2 52.3,17.2 51.2,17.2 51.2,18.3 51.2,19.4 50.1,19.4 50.1,20.6 50.1,21.7 50.1,22.8 49,22.8 49,23.9 47.9,23.9 47.9,25   46.7,25 46.7,26.2 46.7,27.3 45.6,27.3 45.6,26.2 45.6,25 44.5,25 44.5,23.9 43.4,23.9 43.4,22.8 42.2,22.8 41.1,22.8 40,22.8   40,21.7 40,20.6 38.9,20.6 37.8,20.6 36.6,20.6 36.6,21.7 35.5,21.7 35.5,22.8 35.5,23.9 34.4,23.9 34.4,25 34.4,26.2 33.3,26.2   33.3,27.3 32.2,27.3 32.2,28.4 32.2,29.5 32.2,29.5 32.2,30.7 31,30.7 31,31.8 29.9,31.8 29.9,32.9 28.8,32.9 28.8,34 27.7,34   27.7,35.1 27.7,36.3 27.7,37.4 28.8,37.4 "/><polygon points="24.6,48.2 24.6,49.3 24.6,50.4 24.6,51.5 24.6,51.6 24.6,52.7 24.6,53.8 25.7,53.8 25.7,54.9 25.7,56 25.7,57.1   26.8,57.1 26.8,58.3 26.8,59.4 28,59.4 28,60.5 29.1,60.5 30.2,60.5 30.2,59.4 31.3,59.4 32.4,59.4 32.4,58.3 33.6,58.3 34.7,58.3   34.7,57.1 33.6,57.1 33.6,56 32.4,56 32.4,54.9 31.3,54.9 31.3,53.8 32.4,53.8 32.4,52.7 33.6,52.7 33.6,51.6 34.7,51.6 34.7,50.4   34.7,49.3 34.7,48.2 35.8,48.2 36.9,48.2 38,48.2 39.2,48.2 39.2,47.1 39.2,46 40.3,46 40.3,44.8 40.3,43.7 39.2,43.7 39.2,42.6   38,42.6 36.9,42.6 36.9,41.5 35.8,41.5 34.7,41.5 33.6,41.5 32.4,41.5 31.3,41.5 30.2,41.5 29.1,41.5 29.1,40.4 29.1,39.2 28,39.2   26.8,39.2 25.7,39.2 25.7,40.4 25.7,41.5 24.6,41.5 24.6,42.6 24.6,43.7 23.5,43.7 23.5,44.8 23.5,46 23.5,47.1 24.6,47.1 "/><polygon points="50.8,58.3 50.8,58.3 50.8,57.2 49.6,57.2 49.6,57.1 49.6,56 49.6,54.9 49.6,53.8 48.5,53.8 47.4,53.8 47.4,52.7   47.4,51.5 47.4,50.4 47.4,49.3 47.4,49.3 47.4,48.2 46.3,48.2 46.3,47.1 45.1,47.1 45.1,46 44,46 44,44.8 42.9,44.8 42.9,46   42.9,47.1 41.8,47.1 40.7,47.1 40.7,48.2 40.7,49.3 39.5,49.3 38.4,49.3 37.3,49.3 36.2,49.3 36.2,50.4 36.2,51.5 36.2,52.7   36.2,53.8 35.1,53.8 35.1,54.9 36.2,54.9 37.3,54.9 37.3,56 38.4,56 38.4,57.1 39.5,57.1 40.7,57.1 41.8,57.1 42.9,57.1 44,57.1   45.1,57.1 46.3,57.1 47.4,57.1 47.4,58.3 47.4,59.4 47.4,60.5 46.3,60.5 46.3,61.6 46.3,62.8 46.3,63.9 46.3,65 46.3,66.1   46.3,67.2 46.3,68.4 45.1,68.4 44,68.4 44,69.5 44,70.6 44,71.7 44,72.8 44,74 42.9,74 42.9,75.1 42.9,76.2 42.9,77.3 42.9,78.5   44,78.5 45.1,78.5 46.3,78.5 46.3,77.3 47.4,77.3 48.5,77.3 48.5,76.2 48.5,75.1 48.5,74 49.6,74 49.6,72.8 49.6,71.7 49.6,70.6   50.8,70.6 50.8,69.5 51.9,69.5 51.9,68.4 51.9,67.2 51.9,66.1 51.9,65 53,65 53,63.9 54.1,63.9 54.1,62.8 55.2,62.8 55.2,61.6   55.2,60.5 54.1,60.5 53,60.5 51.9,60.5 50.8,60.5 50.8,59.4 "/><polygon points="41.4,70.7 41.4,69.6 41.4,68.5 41.4,67.3 42.5,67.3 43.7,67.3 43.7,66.2 43.7,65.1 43.7,64 43.7,62.8 43.7,61.7   43.7,60.6 43.7,59.5 42.5,59.5 42.5,58.4 41.4,58.4 40.3,58.4 39.2,58.4 38,58.4 36.9,58.4 36.9,59.5 35.8,59.5 35.8,59.5   34.7,59.5 34.7,60.6 33.6,60.6 32.4,60.6 31.3,60.6 31.3,61.7 31.3,62.8 32.4,62.8 32.4,64 33.6,64 33.6,65.1 34.7,65.1 34.7,66.2   35.8,66.2 35.8,67.3 36.9,67.3 36.9,68.5 36.9,69.6 36.9,70.7 35.8,70.7 34.7,70.7 33.6,70.7 32.4,70.7 32.4,71.8 31.3,71.8   31.3,72.9 30.9,72.9 30.4,72.9 30.2,72.9 30.2,72.9 29.9,72.9 29.6,72.9 29.1,72.9 29.1,74.1 27.9,74.1 26.8,74.1 26.8,75.2   25.7,75.2 24.6,75.2 23.5,75.2 23.5,76.3 22.3,76.3 21.2,76.3 20.1,76.3 19,76.3 19,77.4 19,78.5 19,79.7 20.1,79.7 20.1,80.8   21.2,80.8 21.2,81.9 22.3,81.9 23.5,81.9 24.6,81.9 24.6,80.8 25.7,80.8 26.8,80.8 26.8,79.7 27.9,79.7 29.1,79.7 30.2,79.7   30.2,78.5 31.3,78.5 32.4,78.5 33.6,78.5 33.6,77.4 34.7,77.4 35.8,77.4 36.9,77.4 36.9,76.3 38,76.3 39.2,76.3 40.3,76.3   40.3,75.2 40.3,74.1 40.3,72.9 40.3,71.8 41.4,71.8 "/><polygon points="22.1,83 21,83 19.8,83 19.8,81.9 18.7,81.9 18.7,80.8 17.6,80.8 17.6,79.7 17.6,78.5 17.6,77.4 17.6,76.3   16.5,76.3 15.3,76.3 14.2,76.3 14.2,77.4 14.2,78.5 14.2,79.7 14.2,80.8 14.2,81.9 14.2,83 15.3,83 15.3,84.2 16.5,84.2 16.5,85.3   17.6,85.3 17.6,86.4 17.6,87.5 17.6,88.6 17.6,89.8 17.6,90.9 18.7,90.9 18.7,92 19.8,92 19.8,93.1 21,93.1 22.1,93.1 23.2,93.1   23.2,92 23.2,90.9 23.2,89.8 23.2,88.6 23.2,87.5 23.2,86.4 24.3,86.4 24.3,85.3 24.3,84.2 24.3,83 23.2,83 "/><polygon points="53.8,83.5 53.8,82.4 52.6,82.4 51.5,82.4 51.5,81.2 50.4,81.2 50.4,80.1 49.3,80.1 49.3,79 48.2,79 47,79 47,80.1   45.9,80.1 44.8,80.1 43.7,80.1 42.6,80.1 42.6,79 41.4,79 40.3,79 40.3,80.1 40.3,81.2 40.3,82.4 40.3,83.5 40.3,84.6 41.4,84.6   42.6,84.6 43.7,84.6 44.8,84.6 44.8,85.7 45.9,85.7 45.9,86.9 47,86.9 48.2,86.9 49.3,86.9 50.4,86.9 51.5,86.9 52.6,86.9   53.8,86.9 54.9,86.9 56,86.9 56,85.7 56,84.6 56,83.5 54.9,83.5 "/><polygon points="43.9,20.9 45,20.9 46.1,20.9 47.2,20.9 48.4,20.9 48.4,19.8 48.4,18.6 49.5,18.6 49.5,17.5 50.6,17.5 50.6,16.4   50.6,15.3 50.6,14.1 50.6,13 50.6,11.9 49.5,11.9 49.5,13 48.4,13 47.3,13 46.2,13 45,13 43.9,13 42.8,13 41.7,13 40.6,13 39.4,13   38.3,13 37.2,13 37.2,14.1 37.2,15.3 38.3,15.3 38.3,16.4 39.4,16.4 39.4,17.5 40.5,17.5 40.5,18.6 41.6,18.6 41.6,19.8 42.7,19.8   42.7,20.9 "/><polygon points="39.4,11.8 40.5,11.8 41.6,11.8 42.7,11.8 42.7,11.8 43.9,11.8 45,11.8 46.1,11.8 47.2,11.8 48.4,11.8 48.4,10.7   49.5,10.7 50.6,10.7 50.6,9.6 50.6,8.5 49.5,8.5 49.5,7.4 48.4,7.4 47.2,7.4 47.2,8.5 46.1,8.5 45,8.5 43.9,8.5 42.7,8.5 41.6,8.5   40.5,8.5 39.4,8.5 38.3,8.5 38.3,9.6 37.1,9.6 37.1,10.7 37.1,11.8 38.3,11.8 "/><polygon points="41.4,7.3 42.5,7.3 43.6,7.3 44.8,7.3 45.9,7.3 45.9,6.1 47,6.1 47,6.1 48.1,6.1 48.1,5 47,5 47,5 45.9,5 44.8,5   43.6,5 42.5,5 41.4,5 40.3,5 40.3,6.1 39.2,6.1 39.2,7.3 40.3,7.3 "/><polygon points="73.8,38 73.8,39.1 75,39.1 76.1,39.1 77.2,39.1 78.3,39.1 78.3,38 79.5,38 79.5,36.8 79.5,35.7 79.5,34.6   78.3,34.6 78.3,33.5 77.2,33.5 76.1,33.5 76.1,32.4 77.2,32.4 78.3,32.4 78.3,31.2 77.2,31.2 76.1,31.2 75,31.2 73.8,31.2   72.7,31.2 72.7,32.4 71.6,32.4 71.6,33.5 71.6,34.6 71.6,35.7 71.6,36.8 71.6,38 72.7,38 "/><g><polygon points="79.4,50 78.3,50 77.1,50 77.1,51.1 78.3,51.1 79.4,51.1 80.5,51.1 80.5,50 81.6,50 82.7,50 83.9,50 85,50 85,48.9    83.9,48.9 82.7,48.9 81.6,48.9 80.5,48.9 79.4,48.9  "/><polygon points="85,50 83.9,50 83.9,51.1 85,51.1 85,52.2 86.1,52.2 87.2,52.2 87.2,52.3 87.2,52.3 87.2,53.4 88.3,53.4 88.3,54.5    89.5,54.5 89.5,53.4 89.5,52.2 88.4,52.2 88.3,52.2 88.3,51.1 87.2,51.1 87.2,51.1 86.1,51.1 86.1,50  "/><polygon points="73.8,56.7 73.8,55.6 73.8,54.5 73.8,53.4 74.9,53.4 74.9,52.3 74.9,52.2 76,52.2 77.1,52.2 78.3,52.2 78.3,51.1    77.1,51.1 76,51.1 74.9,51.1 74.9,51.1 73.8,51.1 73.8,52.2 72.7,52.2 72.7,53.4 72.7,54.5 71.5,54.5 70.4,54.5 69.3,54.5    68.2,54.5 68.2,54.5 67.1,54.5 67.1,54.5 66,54.5 64.9,54.5 63.8,54.5 62.6,54.5 61.5,54.5 60.4,54.5 59.3,54.5 59.3,55.6    59.3,56.7 60.4,56.7 61.5,56.7 62.6,56.7 63.8,56.7 64.9,56.7 66,56.7 67.1,56.7 67.1,56.7 68.2,56.7 68.2,56.7 69.3,56.7    70.4,56.7 71.5,56.7 72.7,56.7 72.7,56.7  "/><g><polygon points="82.8,61.2 81.6,61.2 80.5,61.2 80.5,60.1 79.4,60.1 78.3,60.1 77.1,60.1 77.1,61.2 78.3,61.2 79.4,61.2     79.4,62.3 80.5,62.3 81.6,62.3 82.8,62.3 83.9,62.3 85,62.3 85,61.2 83.9,61.2   "/><polygon points="90.6,56.7 90.6,55.8 90.6,55.6 90.6,54.6 90.6,53.4 89.5,53.4 89.5,54.6 89.5,55.6 89.5,55.8 89.5,56.7     88.3,56.7 88.3,57.9 87.2,57.9 87.2,59 87.2,59 87.2,59 86.1,59 85,59 85,60.1 83.9,60.1 83.9,61.2 85,61.2 86.1,61.2 86.1,60.1     87.2,60.1 87.2,60.1 88.4,60.1 88.4,59 88.4,59 89.5,59 89.5,57.9 89.5,56.7 89.5,56.7 89.5,57.9 90.6,57.9 90.6,56.7   "/><polygon points="72.7,57.9 72.7,59 73.8,59 73.8,57.9 73.8,56.7 72.7,56.7   "/><polygon points="78.3,60.1 78.3,59 77.1,59 76,59 74.9,59 74.9,59 74.9,57.9 73.8,57.9 73.8,59 73.8,59 73.8,60.1 74.9,60.1     74.9,60.1 76,60.1 77.1,60.1   "/></g><rect x="72.7" y="55.5" width="1.1" height="1.8"/></g><polygon points="475.7,206 449.6,206 423.5,206 423.5,232.1 449.6,232.1 475.7,232.1 501.8,232.1 501.8,206.6 527.9,206.6   554,206.6 580.1,206.6 606.2,206.6 606.2,180.5 580.1,180.5 554,180.5 527.9,180.5 501.8,180.5 475.7,180.5 "/><polygon points="606.2,206.3 580.1,206.3 580.1,232.4 606.2,232.4 606.2,257.9 632.3,257.9 658.3,257.9 658.3,258.1 658.4,258.1   658.4,284 684.2,284 684.2,310.1 710.3,310.1 710.3,284 710.3,257.9 684.5,257.9 684.4,257.9 684.4,232 658.4,232 658.4,231.8   632.3,231.8 632.3,206.3 "/><polygon points="345.2,362.3 345.2,336.2 345.2,310.1 345.2,284 371.3,284 371.3,258.1 371.3,257.9 397.4,257.9 423.5,257.9   449.6,257.9 449.6,231.8 423.5,231.8 397.4,231.8 371.3,231.8 371.3,232 345.2,232 345.2,257.9 319.1,257.9 319.1,284 319.1,310   293,310 266.9,310 240.8,310 215.7,310 214.7,310 190.5,310 189.6,310 164.4,310 138.3,310 112.2,310 86.1,310 60,310 33.9,310   7.8,310 7.8,336.1 7.8,362.2 33.9,362.2 60,362.2 86.1,362.2 112.2,362.2 138.3,362.2 164.4,362.2 189.6,362.2 190.5,362.2   214.7,362.2 215.7,362.2 240.8,362.2 266.9,362.2 293,362.2 319.1,362.2 319.1,362.3 "/><g><polygon points="554,465.9 527.9,465.9 501.8,465.9 501.8,440.4 475.7,440.4 449.6,440.4 423.5,440.4 423.5,466.5 449.6,466.5    475.7,466.5 475.7,492 501.8,492 527.9,492 554,492 580.1,492 606.2,492 606.2,465.9 580.1,465.9  "/><polygon points="736.5,362.4 736.5,339.7 736.5,336.3 736.5,311.9 736.5,284 710.4,284 710.4,311.9 710.4,336.3 710.4,339.7    710.4,362.4 684.3,362.4 684.3,388.5 658.5,388.5 658.5,414.4 658.4,414.4 658.4,414.6 632.4,414.6 606.3,414.6 606.3,440.1    580.2,440.1 580.2,466.2 606.3,466.2 632.4,466.2 632.4,440.7 658.5,440.7 658.5,440.5 684.5,440.5 684.5,414.6 684.7,414.6    710.4,414.6 710.4,388.5 710.4,362.4 710.5,362.4 710.5,388.5 736.6,388.5 736.6,362.4  "/><polygon points="319.2,388.5 319.2,414.6 345.3,414.6 345.3,388.5 345.3,362.4 319.2,362.4  "/><polygon points="449.7,440.7 449.7,414.6 423.6,414.6 397.5,414.6 371.4,414.6 371.4,414.4 371.4,388.5 345.3,388.5 345.3,414.4    345.3,414.6 345.3,440.5 371.4,440.5 371.4,440.7 397.5,440.7 423.6,440.7  "/></g><path fill="#000000" d="M112.8-30.2"/><polyline fill="#000000" stroke="#515151" stroke-miterlimit="10" points="318.9,362.4 7.8,362.2 8,310.5 319,310.5 319.1,258.5   345,258.5 345.2,232.2 423.5,232.2 423.5,206 475.5,206 475.5,180 606.5,180.5 606.5,206 632.5,206.3 632.5,232 684.5,232   684.5,258 710.3,257.6 710.4,283.5 736,283.5 736.6,388.5 710,388.5 710.4,414.5 684,414.5 684.5,440.5 632.5,440.7 632.5,466   606.3,466.4 606.2,492.5 476,492.5 475.7,466.5 422.5,466.5 422.5,440.7 345.5,440.5 345.5,415 319.5,415.3 319.5,362 "/><polygon fill="#000000" stroke="#515151" stroke-miterlimit="10" points="345.2,284.4 345.3,388.5 371,388.5 371.4,414.5 450,414.5   449.6,440.7 501.5,440.4 501.5,466 580.5,466.2 580.5,440 606.5,440.1 606.5,415 658.5,414.4 658.5,388 684.5,388.5 684.5,362   710.5,362.4 710.3,310.5 684,310.5 684.2,283.5 658,283.5 658.4,258.1 606.5,258 606.2,232.5 580.5,232.5 580.5,207 501.5,206.6   501.5,232 449.5,231.8 449.5,258 371.5,258.1 371.5,284 "/><text x="0" y="115" fill="#000000" font-size="5px" font-weight="bold" font-family="'Helvetica Neue', Helvetica, Arial-Unicode, Arial, Sans-serif">Created by Basile - Zilo</text><text x="0" y="120" fill="#000000" font-size="5px" font-weight="bold" font-family="'Helvetica Neue', Helvetica, Arial-Unicode, Arial, Sans-serif">from the Noun Project</text></svg>